grf
version=1
nRows=11
nColumns=37
inDegrees=no
endheader
time	ground_force_1_vx	ground_force_1_vy	ground_force_1_vz	ground_force_1_px	ground_force_1_py	ground_force_1_pz	ground_moment_1_mx	ground_moment_1_my	ground_moment_1_mz	ground_force_2_vx	ground_force_2_vy	ground_force_2_vz	ground_force_2_px	ground_force_2_py	ground_force_2_pz	ground_moment_2_mx	ground_moment_2_my	ground_moment_2_mz	ground_force_3_vx	ground_force_3_vy	ground_force_3_vz	ground_force_3_px	ground_force_3_py	ground_force_3_pz	ground_moment_3_mx	ground_moment_3_my	ground_moment_3_mz	ground_force_4_vx	ground_force_4_vy	ground_force_4_vz	ground_force_4_px	ground_force_4_py	ground_force_4_pz	ground_moment_4_mx	ground_moment_4_my	ground_moment_4_mz
      3.16000000	      0.00000000	     -0.00000000	      0.00000000	      0.00000000	      0.00000000	      0.00000000	      0.00000000	      0.00000000	      0.00000000	     -1.81453514	     74.39447021	   -489.15423584	   -198.14219702	  -1210.71027649	      0.00000000	      0.00000000	      0.00000000	   6667.41586585	      3.25659119	    -75.11141233	   -488.11395264	   -225.74207284	   -581.21518009	      0.00000000	      0.00000000	     -0.00000000	  -8104.93664843	      0.00000000	     -0.00000000	      0.00000000	      0.00000000	      0.00000000	      0.00000000	      0.00000000	      0.00000000	      0.00000000
      3.17000000	      0.00000000	     -0.00000000	      0.00000000	      0.00000000	      0.00000000	      0.00000000	      0.00000000	      0.00000000	      0.00000000	     -1.33815765	     74.39406586	   -486.56509399	   -197.66799097	  -1210.08878913	      0.00000000	      0.00000000	      0.00000000	   6642.97502945	      3.05443011	    -75.16175869	   -485.21804810	   -225.16790899	   -581.59164245	      0.00000000	      0.00000000	     -0.00000000	  -8020.43762697	      0.00000000	     -0.00000000	      0.00000000	      0.00000000	      0.00000000	      0.00000000	      0.00000000	      0.00000000	      0.00000000
      3.18000000	      0.00000000	     -0.00000000	      0.00000000	      0.00000000	      0.00000000	      0.00000000	      0.00000000	      0.00000000	      0.00000000	     -2.04228616	     74.34590912	   -484.68273926	   -196.99422519	  -1210.18369101	      0.00000000	      0.00000000	      0.00000000	   6434.27084436	      3.09298403	    -75.53870419	   -484.82043457	   -225.51702268	   -581.41066843	      0.00000000	     -0.00000000	     -0.00000000	  -7975.87401649	      0.00000000	     -0.00000000	      0.00000000	      0.00000000	      0.00000000	      0.00000000	      0.00000000	      0.00000000	      0.00000000
      3.19000000	      0.00000000	     -0.00000000	      0.00000000	      0.00000000	      0.00000000	      0.00000000	      0.00000000	      0.00000000	      0.00000000	     -1.56584287	     74.24562073	   -483.81964111	   -197.26619470	  -1210.37450815	      0.00000000	      0.00000000	      0.00000000	   6612.95395560	      3.08964073	    -75.11180142	   -484.53073120	   -225.38498478	   -581.09035166	      0.00000000	      0.00000000	     -0.00000000	  -7958.60564095	      0.00000000	     -0.00000000	      0.00000000	      0.00000000	      0.00000000	      0.00000000	      0.00000000	      0.00000000	      0.00000000
      3.20000000	      0.00000000	     -0.00000000	      0.00000000	      0.00000000	      0.00000000	      0.00000000	      0.00000000	      0.00000000	      0.00000000	     -1.84236383	     73.97824097	   -482.76119995	   -196.45867485	  -1211.48048314	      0.00000000	      0.00000000	      0.00000000	   6530.59547488	      2.93881547	    -75.06211879	   -483.87942505	   -225.12931279	   -581.04676892	      0.00000000	      0.00000000	     -0.00000000	  -7876.91887785	      0.00000000	     -0.00000000	      0.00000000	      0.00000000	      0.00000000	      0.00000000	      0.00000000	      0.00000000	      0.00000000
      3.21000000	      0.00000000	     -0.00000000	      0.00000000	      0.00000000	      0.00000000	      0.00000000	      0.00000000	      0.00000000	      0.00000000	     -1.78421021	     73.40326691	   -483.27468872	   -197.09698638	  -1210.91736748	      0.00000000	      0.00000000	      0.00000000	   6659.66724772	      3.05496486	    -75.42672756	   -483.68402100	   -224.60444882	   -581.11576585	      0.00000000	      0.00000000	     -0.00000000	  -7875.58252311	      0.00000000	     -0.00000000	      0.00000000	      0.00000000	      0.00000000	      0.00000000	      0.00000000	      0.00000000	      0.00000000
      3.22000000	      0.00000000	     -0.00000000	      0.00000000	      0.00000000	      0.00000000	      0.00000000	      0.00000000	      0.00000000	      0.00000000	     -1.57390511	     73.84030151	   -482.09063721	   -196.69820511	  -1210.43595634	      0.00000000	      0.00000000	      0.00000000	   6640.66813274	      3.56573616	    -75.21130402	   -481.67596436	   -224.64750294	   -580.58080668	      0.00000000	     -0.00000000	     -0.00000000	  -7859.76788047	      0.00000000	     -0.00000000	      0.00000000	      0.00000000	      0.00000000	      0.00000000	      0.00000000	      0.00000000	      0.00000000
      3.23000000	      0.00000000	     -0.00000000	      0.00000000	      0.00000000	      0.00000000	      0.00000000	      0.00000000	      0.00000000	      0.00000000	     -1.40336692	     73.71907806	   -480.09918213	   -196.17365898	  -1210.78816786	      0.00000000	      0.00000000	      0.00000000	   6590.96991702	      3.41006889	    -74.80847198	   -479.66384888	   -224.53940974	   -580.95270104	      0.00000000	      0.00000000	     -0.00000000	  -7935.53561506	      0.00000000	     -0.00000000	      0.00000000	      0.00000000	      0.00000000	      0.00000000	      0.00000000	      0.00000000	      0.00000000
      3.24000000	      0.00000000	     -0.00000000	      0.00000000	      0.00000000	      0.00000000	      0.00000000	      0.00000000	      0.00000000	      0.00000000	     -1.71886683	     73.45140076	   -478.88052368	   -195.50360353	  -1210.65689812	      0.00000000	      0.00000000	      0.00000000	   6453.33388326	      3.59792794	    -74.87825807	   -479.45846558	   -224.05344818	   -580.17879938	      0.00000000	     -0.00000000	     -0.00000000	  -7853.04933159	      0.00000000	     -0.00000000	      0.00000000	      0.00000000	      0.00000000	      0.00000000	      0.00000000	      0.00000000	      0.00000000
      3.25000000	      0.00000000	     -0.00000000	      0.00000000	      0.00000000	      0.00000000	      0.00000000	      0.00000000	      0.00000000	      0.00000000	     -2.05953074	     73.01548004	   -477.69110107	   -195.49932403	  -1211.74923436	      0.00000000	      0.00000000	      0.00000000	   6495.47827087	      3.46974461	    -74.44519836	   -475.62344360	   -222.95478559	   -580.70990391	      0.00000000	     -0.00000000	     -0.00000000	  -7888.65031681	      0.00000000	     -0.00000000	      0.00000000	      0.00000000	      0.00000000	      0.00000000	      0.00000000	      0.00000000	      0.00000000
      3.26000000	      0.00000000	     -0.00000000	      0.00000000	      0.00000000	      0.00000000	      0.00000000	      0.00000000	      0.00000000	      0.00000000	     -2.77292943	     72.93086243	   -475.38018799	   -195.38737459	  -1210.89021893	      0.00000000	      0.00000000	      0.00000000	   6408.14002778	      3.19358175	    -74.40617399	   -476.70898438	   -223.40593166	   -579.86973526	      0.00000000	     -0.00000000	     -0.00000000	  -7939.32354972	      0.00000000	     -0.00000000	      0.00000000	      0.00000000	      0.00000000	      0.00000000	      0.00000000	      0.00000000	      0.00000000
